<svg xmlns="http://www.w3.org/2000/svg" width="128" height="128" viewBox="0 0 128 128">
  <title>INVESTMENT</title>
  <g>
    <path d="M27.112,77.946H45.626A16.052,16.052,0,0,1,57.185,82.86L61.943,87.8H82.8a7.1,7.1,0,0,1,7.1,7.1h0c0,.17-.006.339-.018.506h0l18.089-18.088a7.1,7.1,0,0,1,10.039,0h0a7.1,7.1,0,0,1,0,10.039L90.735,114.628a10.242,10.242,0,0,1-7.242,3H27.112Z" fill="#fcd0a3"/>
    <circle cx="73.6" cy="30.506" r="24.199" transform="translate(27.157 95.24) rotate(-76.856)" fill="#f4dd45"/>
    <circle cx="73.6" cy="30.506" r="16.6" transform="translate(27.108 95.205) rotate(-76.813)" fill="#fcc101"/>
    <rect x="7.913" y="73.881" width="19.199" height="47.813" fill="#64d465"/>
    <path d="M89.88,95.4l3.18-3.17a10.8,10.8,0,0,1,.34,2.67,10.612,10.612,0,0,1-10.6,10.6H57.48a1.75,1.75,0,1,1,0-3.5H82.8a7.108,7.108,0,0,0,7.082-6.6Z" fill="#feb983"/>
    <path d="M74.961,40.505V42.32H72.38v-1.9a11.632,11.632,0,0,1-6.61-3.035l2.043-2.525A9.691,9.691,0,0,0,72.38,37.3V31.768c-3.489-.908-5.844-2.156-5.844-5.5,0-3.063,2.355-5.418,5.844-5.843V18.691h2.581V20.45a10.558,10.558,0,0,1,5.957,2.638L78.989,25.7a9.268,9.268,0,0,0-4.028-2.128V28.9c3.887.88,6.468,2.213,6.468,5.673C81.429,37.838,79.074,40.221,74.961,40.505ZM72.38,28.222V23.514a2.678,2.678,0,0,0-2.27,2.439C70.11,27.088,70.849,27.684,72.38,28.222Zm5.5,6.7c0-1.3-.908-1.9-2.922-2.5V37.47C76.891,37.243,77.883,36.165,77.883,34.917Z" fill="#f4dd45"/>
    <path d="M73.6,68.689a1.75,1.75,0,0,1-1.75-1.75V62.1a1.75,1.75,0,0,1,3.5,0v4.837A1.751,1.751,0,0,1,73.6,68.689Z" fill="#f4dd45"/>
    <path d="M73.6,77.443a1.75,1.75,0,0,1-1.75-1.75v-2.18a1.75,1.75,0,0,1,3.5,0v2.18A1.751,1.751,0,0,1,73.6,77.443Z" fill="#f4dd45"/>
    <path d="M61,65.737a1.751,1.751,0,0,1-1.75-1.75V59.149a1.75,1.75,0,0,1,3.5,0v4.838A1.751,1.751,0,0,1,61,65.737Z" fill="#f4dd45"/>
    <path d="M61,74.491a1.75,1.75,0,0,1-1.75-1.75v-2.18a1.75,1.75,0,0,1,3.5,0v2.18A1.75,1.75,0,0,1,61,74.491Z" fill="#f4dd45"/>
    <path d="M86.2,65.737a1.75,1.75,0,0,1-1.75-1.75V59.149a1.75,1.75,0,1,1,3.5,0v4.838A1.751,1.751,0,0,1,86.2,65.737Z" fill="#f4dd45"/>
    <path d="M86.2,74.491a1.749,1.749,0,0,1-1.75-1.75v-2.18a1.75,1.75,0,0,1,3.5,0v2.18A1.75,1.75,0,0,1,86.2,74.491Z" fill="#f4dd45"/>
  </g>
</svg>
